<?xml version="1.0" encoding="utf-8"?>
<!-- Generator: Adobe Illustrator 17.0.0, SVG Export Plug-In . SVG Version: 6.00 Build 0)  -->
<!DOCTYPE svg PUBLIC "-//W3C//DTD SVG 1.1//EN" "http://www.w3.org/Graphics/SVG/1.1/DTD/svg11.dtd">
<svg version="1.1" id="Capa_1" xmlns="http://www.w3.org/2000/svg" xmlns:xlink="http://www.w3.org/1999/xlink" x="0px" y="0px"
	 width="160px" height="100px" viewBox="0 0 160 100" enable-background="new 0 0 160 100" xml:space="preserve">
<g>
	
		<linearGradient id="SVGID_1_" gradientUnits="userSpaceOnUse" x1="353.1725" y1="53.551" x2="447.2147" y2="53.551" gradientTransform="matrix(1.795863e-010 -1 1 1.795863e-010 27.6667 450.3333)">
		<stop  offset="0" style="stop-color:#009FE3"/>
		<stop  offset="1" style="stop-color:#312783"/>
	</linearGradient>
	<path fill="url(#SVGID_1_)" d="M130.244,5.947c-0.018-2.2-1.718-3.364-3.776-2.587L69.843,24.735
		c-2.058,0.777-5.426,2.048-7.484,2.825L5.734,48.935c-2.058,0.777-2.055,2.04,0.007,2.807L62.757,72.94
		c2.062,0.767,5.436,2.021,7.499,2.788l57.016,21.198c2.062,0.767,3.734-0.406,3.716-2.606l-0.164-19.521
		c-0.018-2.2,1.199-3.933,2.707-3.851c0,0,0,0,1.428,0c12.861,0,20.152-5.78,20.152-5.78c1.724-1.367,3.134-4.285,3.134-6.485
		V42.767c0-2.2-1.411-5.118-3.134-6.485c0,0-7.291-5.78-20.152-5.78c-1.543,0-1.543,0-1.543,0c-1.629,0.089-2.977-1.639-2.995-3.839
		L130.244,5.947z"/>
	<path fill="none" stroke="#CEB817" stroke-width="2" stroke-miterlimit="10" d="M130.244,5.947c-0.018-2.2-1.718-3.364-3.776-2.587
		L69.843,24.735c-2.058,0.777-5.426,2.048-7.484,2.825L5.734,48.935c-2.058,0.777-2.055,2.04,0.007,2.807L62.757,72.94
		c2.062,0.767,5.436,2.021,7.499,2.788l57.016,21.198c2.062,0.767,3.734-0.406,3.716-2.606l-0.164-19.521
		c-0.018-2.2,1.199-3.933,2.707-3.851c0,0,0,0,1.428,0c12.861,0,20.152-5.78,20.152-5.78c1.724-1.367,3.134-4.285,3.134-6.485
		V42.767c0-2.2-1.411-5.118-3.134-6.485c0,0-7.291-5.78-20.152-5.78c-1.543,0-1.543,0-1.543,0c-1.629,0.089-2.977-1.639-2.995-3.839
		L130.244,5.947z"/>
</g>
</svg>
