<?xml version="1.0" encoding="utf-8"?>
<!-- Generator: Adobe Illustrator 17.0.0, SVG Export Plug-In . SVG Version: 6.00 Build 0)  -->
<!DOCTYPE svg PUBLIC "-//W3C//DTD SVG 1.1//EN" "http://www.w3.org/Graphics/SVG/1.1/DTD/svg11.dtd">
<svg version="1.1" id="Capa_1" xmlns="http://www.w3.org/2000/svg" xmlns:xlink="http://www.w3.org/1999/xlink" x="0px" y="0px"
	 width="160px" height="100px" viewBox="0 0 160 100" enable-background="new 0 0 160 100" xml:space="preserve">
<g>
	
		<linearGradient id="SVGID_1_" gradientUnits="userSpaceOnUse" x1="353.816" y1="371.4337" x2="446.8381" y2="371.4337" gradientTransform="matrix(-1.346897e-010 -1 -1 1.346897e-010 450.3333 450.3333)">
		<stop  offset="0" style="stop-color:#009FE3"/>
		<stop  offset="1" style="stop-color:#312783"/>
	</linearGradient>
	<path fill="url(#SVGID_1_)" d="M30.404,6.324c0.018-2.2,1.718-3.364,3.776-2.587l55.946,21.119
		c2.058,0.777,5.426,2.048,7.484,2.825L153.557,48.8c2.058,0.777,2.055,2.04-0.007,2.807L97.217,72.55
		c-2.062,0.767-5.436,2.021-7.499,2.788L33.385,96.282c-2.062,0.767-3.734-0.406-3.716-2.606l0.162-19.23
		c0.018-2.2-1.186-3.933-2.678-3.852c0,0,0,0-1.413,0c-12.725,0-19.906-5.693-19.906-5.693c-1.724-1.367-3.134-4.285-3.134-6.485
		V42.754c0-2.2,1.411-5.118,3.134-6.485c0,0,7.181-5.693,19.906-5.693c1.527,0,1.527,0,1.527,0c1.612,0.088,2.946-1.64,2.964-3.84
		L30.404,6.324z"/>
	<path fill="none" stroke="#CEB817" stroke-width="2" stroke-miterlimit="10" d="M30.404,6.324c0.018-2.2,1.718-3.364,3.776-2.587
		l55.946,21.119c2.058,0.777,5.426,2.048,7.484,2.825L153.557,48.8c2.058,0.777,2.055,2.04-0.007,2.807L97.217,72.55
		c-2.062,0.767-5.436,2.021-7.499,2.788L33.385,96.282c-2.062,0.767-3.734-0.406-3.716-2.606l0.162-19.23
		c0.018-2.2-1.186-3.933-2.678-3.852c0,0,0,0-1.413,0c-12.725,0-19.906-5.693-19.906-5.693c-1.724-1.367-3.134-4.285-3.134-6.485
		V42.754c0-2.2,1.411-5.118,3.134-6.485c0,0,7.181-5.693,19.906-5.693c1.527,0,1.527,0,1.527,0c1.612,0.088,2.946-1.64,2.964-3.84
		L30.404,6.324z"/>
</g>
</svg>
