<?xml version="1.0" encoding="utf-8"?>
<!-- Generator: Adobe Illustrator 17.0.0, SVG Export Plug-In . SVG Version: 6.00 Build 0)  -->
<!DOCTYPE svg PUBLIC "-//W3C//DTD SVG 1.1//EN" "http://www.w3.org/Graphics/SVG/1.1/DTD/svg11.dtd">
<svg version="1.1" id="Capa_1" xmlns="http://www.w3.org/2000/svg" xmlns:xlink="http://www.w3.org/1999/xlink" x="0px" y="0px"
	 width="135px" height="100px" viewBox="0 0 135 100" enable-background="new 0 0 135 100" xml:space="preserve">
<g>
	
		<linearGradient id="SVGID_1_" gradientUnits="userSpaceOnUse" x1="5.5449" y1="375.566" x2="131.1112" y2="375.566" gradientTransform="matrix(1 0 0 -1 0 424.6667)">
		<stop  offset="0" style="stop-color:#009FE3"/>
		<stop  offset="1" style="stop-color:#312783"/>
	</linearGradient>
	<path fill="url(#SVGID_1_)" d="M128.938,20.061c2.2,0.008,2.836,1.388,1.414,3.067l-27.275,32.194
		c-1.422,1.679-3.749,4.425-5.171,6.104L70.631,93.619c-1.422,1.679-3.739,1.67-5.148-0.019L38.45,61.202
		c-1.41-1.689-3.716-4.453-5.125-6.142L6.291,22.663c-1.41-1.689-0.763-3.064,1.437-3.056l28.898,0.108
		c2.2,0.008,3.91-0.722,3.8-1.622c0,0,0,0,0-0.853c0-7.683,7.594-11.951,7.594-11.951c1.918-1.078,5.287-1.96,7.487-1.96h24.065
		c2.2,0,5.569,0.882,7.487,1.96c0,0,7.594,4.268,7.594,11.951c0,0.922,0,0.922,0,0.922c-0.119,0.973,1.584,1.776,3.784,1.784
		L128.938,20.061z"/>
	<path fill="none" stroke="#CEB817" stroke-width="2" stroke-miterlimit="10" d="M128.938,20.061c2.2,0.008,2.836,1.388,1.414,3.067
		l-27.275,32.194c-1.422,1.679-3.749,4.425-5.171,6.104L70.631,93.619c-1.422,1.679-3.739,1.67-5.148-0.019L38.45,61.202
		c-1.41-1.689-3.716-4.453-5.125-6.142L6.291,22.663c-1.41-1.689-0.763-3.064,1.437-3.056l28.898,0.108
		c2.2,0.008,3.91-0.722,3.8-1.622c0,0,0,0,0-0.853c0-7.683,7.594-11.951,7.594-11.951c1.918-1.078,5.287-1.96,7.487-1.96h24.065
		c2.2,0,5.569,0.882,7.487,1.96c0,0,7.594,4.268,7.594,11.951c0,0.922,0,0.922,0,0.922c-0.119,0.973,1.584,1.776,3.784,1.784
		L128.938,20.061z"/>
</g>
</svg>
