<?xml version="1.0" encoding="utf-8"?>
<!-- Generator: Adobe Illustrator 17.0.0, SVG Export Plug-In . SVG Version: 6.00 Build 0)  -->
<!DOCTYPE svg PUBLIC "-//W3C//DTD SVG 1.1//EN" "http://www.w3.org/Graphics/SVG/1.1/DTD/svg11.dtd">
<svg version="1.1" id="Capa_1" xmlns="http://www.w3.org/2000/svg" xmlns:xlink="http://www.w3.org/1999/xlink" x="0px" y="0px"
	 width="135px" height="100px" viewBox="0 0 135 100" enable-background="new 0 0 135 100" xml:space="preserve">
<g>
	<linearGradient id="SVGID_1_" gradientUnits="userSpaceOnUse" x1="5.4766" y1="50.8993" x2="131.1795" y2="50.8993">
		<stop  offset="0" style="stop-color:#009FE3"/>
		<stop  offset="1" style="stop-color:#312783"/>
	</linearGradient>
	<path fill="url(#SVGID_1_)" d="M129.007,79.971c2.2-0.008,2.836-1.388,1.414-3.067L103.112,44.67
		c-1.422-1.679-3.749-4.425-5.171-6.104L70.631,6.332c-1.422-1.679-3.739-1.67-5.148,0.019L38.415,38.789
		c-1.41,1.689-3.716,4.453-5.125,6.142L6.223,77.369c-1.41,1.689-0.763,3.064,1.437,3.056l28.937-0.108
		c2.2-0.008,3.91,0.722,3.8,1.624c0,0,0,0,0,0.854c0,7.691,7.606,11.966,7.606,11.966c1.918,1.078,5.287,1.96,7.487,1.96h24.099
		c2.2,0,5.569-0.882,7.487-1.96c0,0,7.606-4.275,7.606-11.966c0-0.923,0-0.923,0-0.923c-0.119-0.974,1.584-1.778,3.784-1.786
		L129.007,79.971z"/>
	<path fill="none" stroke="#CEB817" stroke-width="2" stroke-miterlimit="10" d="M129.007,79.971c2.2-0.008,2.836-1.388,1.414-3.067
		L103.112,44.67c-1.422-1.679-3.749-4.425-5.171-6.104L70.631,6.332c-1.422-1.679-3.739-1.67-5.148,0.019L38.415,38.789
		c-1.41,1.689-3.716,4.453-5.125,6.142L6.223,77.369c-1.41,1.689-0.763,3.064,1.437,3.056l28.937-0.108
		c2.2-0.008,3.91,0.722,3.8,1.624c0,0,0,0,0,0.854c0,7.691,7.606,11.966,7.606,11.966c1.918,1.078,5.287,1.96,7.487,1.96h24.099
		c2.2,0,5.569-0.882,7.487-1.96c0,0,7.606-4.275,7.606-11.966c0-0.923,0-0.923,0-0.923c-0.119-0.974,1.584-1.778,3.784-1.786
		L129.007,79.971z"/>
</g>
</svg>
